Coordinates
version=1
nRows=6
nColumns=36
inDegrees=yes

Units are S.I. units (second, meters, Newtons, ...)
If the header above contains a line with 'inDegrees', this indicates whether rotational values are in degrees (yes) or radians (no).

endheader
time	pelvis_tilt	pelvis_list	pelvis_rotation	pelvis_tx	pelvis_ty	pelvis_tz	hip_flexion_r	hip_adduction_r	hip_rotation_r	knee_angle_r	knee_angle_r_beta	ankle_angle_r	subtalar_angle_r	mtp_angle_r	hip_flexion_l	hip_adduction_l	hip_rotation_l	knee_angle_l	knee_angle_l_beta	ankle_angle_l	subtalar_angle_l	mtp_angle_l	lumbar_extension	lumbar_bending	lumbar_rotation	arm_flex_r	arm_add_r	arm_rot_r	elbow_flex_r	pro_sup_r	arm_flex_l	arm_add_l	arm_rot_l	elbow_flex_l	pro_sup_l
      3.72881360	     -3.46522042	      0.21736363	      4.90717233	      0.25341367	      0.94102861	     -0.11242019	     -0.56650177	     -1.39546129	     -3.09313375	      0.87648315	      0.01529752	      2.06303055	     -4.72816596	     -7.49999987	     -2.11007447	     -1.04323630	     -1.03398450	      0.72103768	      0.01258448	      3.23743471	     -0.94659242	     -7.49999987	     -0.34207433	     -3.28567092	     13.64041994	    -44.35759780	    -66.23233563	   -168.84871942	    104.66556802	     62.09537574	     97.01769046	    -61.97244964	    -15.47494152	    105.18977887	     73.61768040
      3.74576270	     -3.87494155	      0.19549823	      4.89801326	      0.25377512	      0.94063883	     -0.11201870	     -0.13188588	     -1.38372438	     -3.22358905	      0.90052728	      0.01571717	      2.23342936	     -4.15308953	     -7.49999987	     -1.66974561	     -1.07671443	     -1.39964701	      0.75667143	      0.01320641	      3.19017006	     -0.46613952	     -7.49999987	      0.46804235	     -3.38001744	     13.64471104	    -43.13597521	    -66.03352915	   -167.26899346	    105.14904741	     61.57981601	     96.78374756	    -61.87692958	    -14.54867380	    105.55716096	     70.05046526
      3.76271190	     -3.45380275	      0.24149574	      4.91524895	      0.25344791	      0.94148468	     -0.11177605	     -0.60242061	     -1.37311758	     -3.00127394	      0.88548619	      0.01545465	      2.12414893	     -4.74960072	     -7.49999987	     -2.13694601	     -1.07509886	     -1.09678911	      0.73412840	      0.01281296	      3.07655266	     -1.20675234	     -7.49999987	     -0.28932591	     -3.31950306	     13.09803289	    -42.60899309	    -66.88903161	   -167.03376663	    105.05475487	     61.48043756	     97.28195879	    -62.69080652	    -14.84721501	    105.50861430	     69.10348642
      3.77966100	     -3.47498920	      0.24640029	      4.89664737	      0.25341796	      0.94195974	     -0.11144197	     -0.58594767	     -1.35864679	     -2.92564669	      0.88614952	      0.01546623	      2.14426223	     -4.83332351	     -7.49999987	     -2.11973175	     -1.08903360	     -1.16195821	      0.72537097	      0.01266011	      2.99717415	     -1.32134527	     -7.49999987	     -0.23145450	     -3.33349130	     12.93885607	    -42.03026704	    -67.13384791	   -166.32320480	    105.18368290	     61.52133882	     97.24642819	    -62.89565862	    -14.63905310	    105.53133439	     68.55700353
      3.79661020	     -3.45201388	      0.27107663	      4.89702655	      0.25328263	      0.94201970	     -0.11121390	     -0.61718755	     -1.37708934	     -3.08424505	      0.87835798	      0.01533024	      2.24031427	     -4.64491048	     -7.49999987	     -2.14236064	     -1.06865322	     -1.18309638	      0.71666900	      0.01250823	      2.93102186	     -1.37157257	     -7.49999987	     -0.17912611	     -3.40938762	     13.50766750	    -43.51669832	    -66.63085295	   -167.75763815	    104.81780003	     62.39000043	     97.06089757	    -61.61049075	    -14.78011572	    105.15719419	     73.76767762
      3.81355930	     -3.46562582	      0.28826121	      4.88420087	      0.25309940	      0.94154458	     -0.11103363	     -0.60762263	     -1.38965939	     -3.08944517	      0.86330366	      0.01506749	      2.30293356	     -4.67159412	     -7.49999987	     -2.12667497	     -1.04596985	     -1.22653657	      0.70679335	      0.01233587	      2.86109203	     -1.41856719	     -7.49999987	     -0.15949583	     -3.39272945	     13.01787674	    -42.25046581	    -67.44622379	   -166.04431714	    105.13560606	     61.73756530	     97.13492623	    -62.46368677	    -14.14002554	    105.08681091	     69.64687842
